<svg xmlns="http://www.w3.org/2000/svg" viewBox="0 0 434.35 424.22"><defs><style>.cls-1{fill:#f2f2f2;}</style></defs><title>Asset 1blog ikon</title><g id="Layer_2" data-name="Layer 2"><g id="Layer_1-2" data-name="Layer 1"><path class="cls-1" d="M432.88,229.59,403.64,56.31C397.24,18.64,373.1,0,344.77,0h-255C61.48,0,37.2,18.64,30.8,56.31L1.56,229.59c-4.12,24.49,0,50.23,11.42,70.32S41.76,331.3,60,331.3h96l29.7,69.07c6.4,15.06,17.82,23.85,30.61,23.85h0c12.8,0,24.22-8.79,30.62-23.85l29.7-69.07h95.95c18.73,0,35.64-11.3,47.06-31.39C432.42,279.82,437,254.71,432.88,229.59Zm-36.1,44C391.3,283,382.72,298,373.58,298H269c-5.48,0-10.61-5.58-13.35,1.32l-34.27,79.11c-1.37,3.14-3.2,3.14-4.11,3.14h0a4.65,4.65,0,0,1-4.11-3.14l-34.27-79.11C176.1,293,171.17,298,165.69,298H60.6c-9.14,0-17.46-15-23.4-24.42s-7.31-22-5.49-34.53L61,65.73c3.19-18.21,15.17-36.07,28.88-36.07h254.5c13.71,0,25.49,17.86,28.68,36.07L402.27,239C404.55,251.57,402.72,264.13,396.78,273.54Z"/><path class="cls-1" d="M135,121.61c-10,0-18.27,11.3-18.27,25.11v30.14c0,13.81,8.22,25.11,18.27,25.11s18.28-11.3,18.28-25.11V146.09C153.25,132.91,145,121.61,135,121.61Z"/><path class="cls-1" d="M217.22,121.61c-10.05,0-18.28,11.3-18.28,25.11v30.14c0,13.81,8.23,25.11,18.28,25.11s18.27-11.3,18.27-25.11V146.09C235.49,132.91,227.27,121.61,217.22,121.61Z"/><path class="cls-1" d="M299.46,121.61c-10,0-18.27,11.3-18.27,25.11v30.14c0,13.81,8.22,25.11,18.27,25.11s18.28-11.3,18.28-25.11V146.09C317.74,132.91,309.51,121.61,299.46,121.61Z"/></g></g></svg>