<?xml version="1.0" encoding="utf-8"?>
<!-- Generator: Adobe Illustrator 22.0.1, SVG Export Plug-In . SVG Version: 6.00 Build 0)  -->
<svg version="1.1" id="Layer_1" xmlns="http://www.w3.org/2000/svg" xmlns:xlink="http://www.w3.org/1999/xlink" x="0px" y="0px"
	 viewBox="0 0 441.5 454.5"  enable-background="new 0 0 441.5 454.5" xml:space="preserve">
<style type="text/css">
	.st0{fill:none;}
	.st1{fill:#FFFFFF;}
</style>
<g>
	<path class="st0" d="M433.7,223.9c0,75.6,0,151.2,0,227c-69.3,0-138.7,0-208,0c0.5-0.2,0.9-0.5,1.4-0.5c16.2-1,31.3-16.3,32.8-36.1
		c1-12.3,2.2-24.5,3.3-36.8c2.5-28.8,5.3-57.7,7.4-86.5c1.4-19.2-10.9-34.5-30.1-37c-10.3-1.4-20.9-0.7-31.4-0.8
		c-24.9-0.1-40.1,16.3-38.2,41c3.2,40.3,6.5,80.6,9.9,120.9c0.8,9.7,4.8,18.2,11.8,25.3c6.1,6.2,13.9,8.9,22.1,10.5
		c-68.9,0-137.8,0-207,0c0-75.7,0-151.3,0-227c0.2,1.5,0.6,2.9,0.6,4.4c1.6,33.2,10.4,64.3,26.5,93.3c10.8,19.5,24.4,36.9,40.9,52
		c1.1,1,3.9,1.9,4.8,1.3c8.6-6,16.9-12.3,25.3-18.5c-83-68.4-85.1-193.6-10.2-266.9c67.5-66.1,179.3-67.6,247.9-1.9
		c35.3,33.8,54.7,75.2,56.3,124.1C401.7,270,379,318,335.5,356.2c8.4,6.2,16.6,12.5,25.1,18.4c1,0.7,3.7,0.2,4.8-0.8
		c35.7-33.3,57.5-74.1,65.3-122.3C432.1,242.4,432.7,233.1,433.7,223.9z M147.4,267c-38.5-45-28.2-105.5,8.2-137.9
		c36.6-32.5,91.4-33,128.6-1.6c36.8,31.1,49.8,93.2,10,139.5c9.2,6.7,18.4,13.5,27.6,20.3c39.8-43.3,46.8-124.3-6.8-178.8
		c-52.7-53.6-140.3-52.2-192,3.8c-50.6,54.8-41.8,133.6-3.2,175C128.9,280.6,138,273.9,147.4,267z M270.8,189.6
		c0.1-27.7-22-49.9-49.6-50c-28.1-0.1-50.3,21.7-50.5,49.6c-0.2,27.8,22.2,50.4,49.9,50.4C248.3,239.7,270.7,217.4,270.8,189.6z"/>
	<path class="st1" d="M433.7,223.9c-1,9.2-1.6,18.5-3.1,27.7c-7.8,48.2-29.7,89-65.3,122.3c-1,0.9-3.8,1.5-4.8,0.8
		c-8.4-5.9-16.7-12.2-25.1-18.4C379,318,401.7,270,399.8,211.6c-1.6-48.9-21-90.3-56.3-124.1c-68.6-65.7-180.4-64.2-247.9,1.9
		c-74.9,73.4-72.8,198.5,10.2,266.9c-8.4,6.2-16.7,12.5-25.3,18.5c-0.9,0.6-3.6-0.3-4.8-1.3c-16.5-15.1-30.1-32.5-40.9-52
		c-16.1-29-25-60.1-26.5-93.3c-0.1-1.5-0.4-2.9-0.6-4.4c0-3.7,0-7.3,0-11c0.2-1.6,0.5-3.2,0.7-4.8c1.3-10.6,1.8-21.3,3.9-31.7
		C36.1,60.1,147.5-13.5,263.8,9.9C348,26.9,414.6,94.9,429.8,179.8c1.9,10.6,2.7,21.4,4,32.1C433.7,215.9,433.7,219.9,433.7,223.9z"
		/>
	<path class="st0" d="M433.7,211.9c-1.3-10.7-2.1-21.5-4-32.1C414.6,94.9,348,26.9,263.8,9.9C147.5-13.5,36.1,60.1,12.3,176.4
		c-2.1,10.4-2.6,21.1-3.9,31.7c-0.2,1.6-0.4,3.2-0.7,4.8c0-69.3,0-138.6,0-207.9c142,0,284,0,426,0
		C433.7,74,433.7,142.9,433.7,211.9z"/>
	<path class="st1" d="M214.7,450.9c-8.2-1.7-16-4.3-22.1-10.5c-6.9-7.1-11-15.5-11.8-25.3c-3.4-40.3-6.7-80.6-9.9-120.9
		c-2-24.7,13.3-41.1,38.2-41c10.5,0,21.1-0.6,31.4,0.8c19.2,2.5,31.5,17.8,30.1,37c-2.1,28.9-4.9,57.7-7.4,86.5
		c-1.1,12.3-2.3,24.5-3.3,36.8c-1.5,19.7-16.6,35-32.8,36.1c-0.5,0-0.9,0.4-1.4,0.5C222.1,450.9,218.4,450.9,214.7,450.9z"/>
	<path class="st1" d="M147.4,267c-9.4,6.9-18.5,13.6-27.6,20.3c-38.5-41.4-47.3-120.2,3.2-175c51.7-56,139.3-57.4,192-3.8
		c53.6,54.6,46.6,135.5,6.8,178.8c-9.2-6.8-18.4-13.5-27.6-20.3c39.9-46.3,26.8-108.4-10-139.5c-37.2-31.4-92-30.9-128.6,1.6
		C119.2,161.5,108.8,222,147.4,267z"/>
	<path class="st1" d="M270.8,189.6c-0.1,27.8-22.4,50.1-50.3,50c-27.7-0.1-50.1-22.7-49.9-50.4c0.2-27.9,22.4-49.8,50.5-49.6
		C248.8,139.7,270.9,161.9,270.8,189.6z"/>
</g>
</svg>
